<svg id="visual" viewBox="0 0 900 600" width="900" height="600" xmlns="http://www.w3.org/2000/svg" xmlns:xlink="http://www.w3.org/1999/xlink" version="1.1"><rect x="0" y="0" width="900" height="600" fill="#ffffff"></rect><defs><linearGradient id="grad1_0" x1="33.3%" y1="0%" x2="100%" y2="100%"><stop offset="20%" stop-color="#e80d0b" stop-opacity="1"></stop><stop offset="80%" stop-color="#e80d0b" stop-opacity="1"></stop></linearGradient></defs><defs><linearGradient id="grad1_1" x1="33.3%" y1="0%" x2="100%" y2="100%"><stop offset="20%" stop-color="#e80d0b" stop-opacity="1"></stop><stop offset="80%" stop-color="#fe785b" stop-opacity="1"></stop></linearGradient></defs><defs><linearGradient id="grad1_2" x1="33.3%" y1="0%" x2="100%" y2="100%"><stop offset="20%" stop-color="#ffbdab" stop-opacity="1"></stop><stop offset="80%" stop-color="#fe785b" stop-opacity="1"></stop></linearGradient></defs><defs><linearGradient id="grad1_3" x1="33.3%" y1="0%" x2="100%" y2="100%"><stop offset="20%" stop-color="#ffbdab" stop-opacity="1"></stop><stop offset="80%" stop-color="#ffffff" stop-opacity="1"></stop></linearGradient></defs><defs><linearGradient id="grad2_0" x1="0%" y1="0%" x2="66.7%" y2="100%"><stop offset="20%" stop-color="#e80d0b" stop-opacity="1"></stop><stop offset="80%" stop-color="#e80d0b" stop-opacity="1"></stop></linearGradient></defs><defs><linearGradient id="grad2_1" x1="0%" y1="0%" x2="66.7%" y2="100%"><stop offset="20%" stop-color="#fe785b" stop-opacity="1"></stop><stop offset="80%" stop-color="#e80d0b" stop-opacity="1"></stop></linearGradient></defs><defs><linearGradient id="grad2_2" x1="0%" y1="0%" x2="66.7%" y2="100%"><stop offset="20%" stop-color="#fe785b" stop-opacity="1"></stop><stop offset="80%" stop-color="#ffbdab" stop-opacity="1"></stop></linearGradient></defs><defs><linearGradient id="grad2_3" x1="0%" y1="0%" x2="66.7%" y2="100%"><stop offset="20%" stop-color="#ffffff" stop-opacity="1"></stop><stop offset="80%" stop-color="#ffbdab" stop-opacity="1"></stop></linearGradient></defs><g transform="translate(900, 0)"><path d="M0 486.7C-46.7 440.5 -93.3 394.2 -156.5 377.9C-219.7 361.6 -299.4 375.2 -344.2 344.2C-388.9 313.1 -398.7 237.4 -416.7 172.6C-434.6 107.8 -460.7 53.9 -486.7 0L0 0Z" fill="#ffded4"></path><path d="M0 365.1C-35 330.3 -70 295.6 -117.4 283.4C-164.8 271.2 -224.6 281.4 -258.1 258.1C-291.7 234.9 -299.1 178.1 -312.5 129.4C-326 80.8 -345.5 40.4 -365.1 0L0 0Z" fill="#ff9b82"></path><path d="M0 243.4C-23.3 220.2 -46.7 197.1 -78.3 188.9C-109.9 180.8 -149.7 187.6 -172.1 172.1C-194.5 156.6 -199.4 118.7 -208.3 86.3C-217.3 53.9 -230.3 26.9 -243.4 0L0 0Z" fill="#f45035"></path><path d="M0 121.7C-11.7 110.1 -23.3 98.5 -39.1 94.5C-54.9 90.4 -74.9 93.8 -86 86C-97.2 78.3 -99.7 59.4 -104.2 43.1C-108.7 26.9 -115.2 13.5 -121.7 0L0 0Z" fill="#e80d0b"></path></g><g transform="translate(0, 600)"><path d="M0 -486.7C64.7 -482.1 129.5 -477.5 186.3 -449.7C243.1 -421.9 291.9 -370.9 316.8 -316.8C341.6 -262.6 342.5 -205.3 366.8 -151.9C391.1 -98.6 438.9 -49.3 486.7 0L0 0Z" fill="#ffded4"></path><path d="M0 -365.1C48.6 -361.6 97.1 -358.1 139.7 -337.3C182.3 -316.4 219 -278.2 237.6 -237.6C256.2 -197 256.8 -153.9 275.1 -113.9C293.3 -73.9 329.2 -37 365.1 0L0 0Z" fill="#ff9b82"></path><path d="M0 -243.4C32.4 -241.1 64.7 -238.7 93.1 -224.8C121.5 -211 146 -185.5 158.4 -158.4C170.8 -131.3 171.2 -102.6 183.4 -76C195.6 -49.3 219.5 -24.6 243.4 0L0 0Z" fill="#f45035"></path><path d="M0 -121.7C16.2 -120.5 32.4 -119.4 46.6 -112.4C60.8 -105.5 73 -92.7 79.2 -79.2C85.4 -65.7 85.6 -51.3 91.7 -38C97.8 -24.6 109.7 -12.3 121.7 0L0 0Z" fill="#e80d0b"></path></g></svg>